<mxfile host="65bd71144e" modified="2020-12-14T15:52:36.912Z" agent="5.0 (Windows NT 10.0; Win64; x64) AppleWebKit/537.36 (KHTML, like Gecko) Code/1.52.0 Chrome/83.0.4103.122 Electron/9.3.5 Safari/537.36" etag="k9S4K2QLqWMXubcgws4i" version="13.10.0" type="embed">
    <diagram id="dBRtx-TbVDWdsvKZ1wc_" name="Page-1">
        <mxGraphModel dx="572" dy="326" grid="1" gridSize="10" guides="1" tooltips="1" connect="1" arrows="1" fold="1" page="1" pageScale="1" pageWidth="850" pageHeight="1100" background="none" math="0" shadow="0">
            <root>
                <mxCell id="0"/>
                <mxCell id="1" parent="0"/>
                <mxCell id="129" style="edgeStyle=orthogonalEdgeStyle;rounded=0;jumpStyle=arc;jumpSize=15;orthogonalLoop=1;jettySize=auto;html=1;exitX=0;exitY=0.5;exitDx=0;exitDy=0;entryX=1;entryY=0.5;entryDx=0;entryDy=0;strokeColor=#FF0000;endArrow=none;endFill=0;" edge="1" parent="1" source="114" target="66">
                    <mxGeometry relative="1" as="geometry"/>
                </mxCell>
                <mxCell id="130" style="edgeStyle=orthogonalEdgeStyle;rounded=0;jumpStyle=arc;jumpSize=15;orthogonalLoop=1;jettySize=auto;html=1;exitX=0;exitY=0.5;exitDx=0;exitDy=0;entryX=1;entryY=0.5;entryDx=0;entryDy=0;strokeColor=#FF0000;endArrow=none;endFill=0;" edge="1" parent="1" source="114" target="73">
                    <mxGeometry relative="1" as="geometry"/>
                </mxCell>
                <mxCell id="131" style="edgeStyle=orthogonalEdgeStyle;rounded=0;jumpStyle=arc;jumpSize=15;orthogonalLoop=1;jettySize=auto;html=1;exitX=0;exitY=0.5;exitDx=0;exitDy=0;entryX=1;entryY=0.5;entryDx=0;entryDy=0;strokeColor=#FF0000;endArrow=none;endFill=0;" edge="1" parent="1" source="114" target="67">
                    <mxGeometry relative="1" as="geometry"/>
                </mxCell>
                <mxCell id="132" style="edgeStyle=orthogonalEdgeStyle;rounded=0;jumpStyle=arc;jumpSize=15;orthogonalLoop=1;jettySize=auto;html=1;exitX=0;exitY=0.5;exitDx=0;exitDy=0;entryX=1;entryY=0.5;entryDx=0;entryDy=0;strokeColor=#FF0000;endArrow=none;endFill=0;" edge="1" parent="1" source="114" target="63">
                    <mxGeometry relative="1" as="geometry"/>
                </mxCell>
                <mxCell id="158" style="edgeStyle=orthogonalEdgeStyle;rounded=0;jumpStyle=arc;jumpSize=15;orthogonalLoop=1;jettySize=auto;html=1;exitX=1;exitY=0.5;exitDx=0;exitDy=0;strokeColor=#FF0000;entryX=0;entryY=1;entryDx=0;entryDy=0;endArrow=none;endFill=0;" edge="1" parent="1" source="114" target="96">
                    <mxGeometry relative="1" as="geometry">
                        <mxPoint x="1090" y="580" as="targetPoint"/>
                        <Array as="points">
                            <mxPoint x="1050" y="620"/>
                            <mxPoint x="1050" y="518"/>
                        </Array>
                    </mxGeometry>
                </mxCell>
                <mxCell id="159" style="edgeStyle=orthogonalEdgeStyle;rounded=0;jumpStyle=arc;jumpSize=15;orthogonalLoop=1;jettySize=auto;html=1;exitX=1;exitY=0.5;exitDx=0;exitDy=0;entryX=0;entryY=1;entryDx=0;entryDy=0;strokeColor=#FF0000;endArrow=none;endFill=0;" edge="1" parent="1" source="114" target="101">
                    <mxGeometry relative="1" as="geometry">
                        <Array as="points">
                            <mxPoint x="1050" y="620"/>
                            <mxPoint x="1050" y="418"/>
                        </Array>
                    </mxGeometry>
                </mxCell>
                <mxCell id="161" style="edgeStyle=orthogonalEdgeStyle;rounded=0;jumpStyle=arc;jumpSize=15;orthogonalLoop=1;jettySize=auto;html=1;exitX=1;exitY=0.5;exitDx=0;exitDy=0;entryX=0;entryY=1;entryDx=0;entryDy=0;strokeColor=#FF0000;endArrow=none;endFill=0;" edge="1" parent="1" source="114" target="97">
                    <mxGeometry relative="1" as="geometry">
                        <Array as="points">
                            <mxPoint x="1050" y="620"/>
                            <mxPoint x="1050" y="318"/>
                        </Array>
                    </mxGeometry>
                </mxCell>
                <mxCell id="163" style="edgeStyle=orthogonalEdgeStyle;rounded=0;jumpStyle=arc;jumpSize=15;orthogonalLoop=1;jettySize=auto;html=1;exitX=1;exitY=0.5;exitDx=0;exitDy=0;entryX=0;entryY=1;entryDx=0;entryDy=0;strokeColor=#FF0000;endArrow=none;endFill=0;" edge="1" parent="1" source="114" target="94">
                    <mxGeometry relative="1" as="geometry">
                        <Array as="points">
                            <mxPoint x="1050" y="620"/>
                            <mxPoint x="1050" y="218"/>
                        </Array>
                    </mxGeometry>
                </mxCell>
                <mxCell id="114" value="«actor»&lt;br&gt;Admin" style="rounded=0;whiteSpace=wrap;html=1;fillColor=none;strokeColor=#FF0000;" vertex="1" parent="1">
                    <mxGeometry x="810" y="590" width="100" height="60" as="geometry"/>
                </mxCell>
                <mxCell id="78" value="" style="group" connectable="0" vertex="1" parent="1">
                    <mxGeometry x="430" width="180" height="840" as="geometry"/>
                </mxCell>
                <mxCell id="62" value="" style="rounded=0;whiteSpace=wrap;html=1;fillColor=none;" vertex="1" parent="78">
                    <mxGeometry width="180" height="840" as="geometry"/>
                </mxCell>
                <mxCell id="63" value="" style="ellipse;whiteSpace=wrap;html=1;fillColor=none;" vertex="1" parent="78">
                    <mxGeometry x="30" y="40" width="120" height="80" as="geometry"/>
                </mxCell>
                <mxCell id="64" value="Search" style="text;html=1;strokeColor=none;fillColor=none;align=center;verticalAlign=middle;whiteSpace=wrap;rounded=0;" vertex="1" parent="78">
                    <mxGeometry x="70" y="70" width="40" height="20" as="geometry"/>
                </mxCell>
                <mxCell id="66" value="Checkout" style="ellipse;whiteSpace=wrap;html=1;fillColor=none;" vertex="1" parent="78">
                    <mxGeometry x="30" y="340" width="120" height="80" as="geometry"/>
                </mxCell>
                <mxCell id="67" value="Add to &lt;br&gt;Cart" style="ellipse;whiteSpace=wrap;html=1;fillColor=none;align=center;" vertex="1" parent="78">
                    <mxGeometry x="30" y="140" width="120" height="80" as="geometry"/>
                </mxCell>
                <mxCell id="68" value="View Orders" style="ellipse;whiteSpace=wrap;html=1;fillColor=none;" vertex="1" parent="78">
                    <mxGeometry x="30" y="540" width="120" height="80" as="geometry"/>
                </mxCell>
                <mxCell id="70" value="«Subsystem»&lt;br&gt;&lt;b&gt;Ecommerce&lt;/b&gt;" style="text;html=1;align=center;verticalAlign=middle;resizable=0;points=[];autosize=1;" vertex="1" parent="78">
                    <mxGeometry width="90" height="30" as="geometry"/>
                </mxCell>
                <mxCell id="72" value="Register" style="ellipse;whiteSpace=wrap;html=1;fillColor=none;" vertex="1" parent="78">
                    <mxGeometry x="30" y="440" width="120" height="80" as="geometry"/>
                </mxCell>
                <mxCell id="73" value="Remove from&lt;br&gt;Cart" style="ellipse;whiteSpace=wrap;html=1;fillColor=none;" vertex="1" parent="78">
                    <mxGeometry x="30" y="240" width="120" height="80" as="geometry"/>
                </mxCell>
                <mxCell id="76" value="Logout" style="ellipse;whiteSpace=wrap;html=1;fillColor=none;" vertex="1" parent="78">
                    <mxGeometry x="30" y="740" width="120" height="80" as="geometry"/>
                </mxCell>
                <mxCell id="77" value="Login" style="ellipse;whiteSpace=wrap;html=1;fillColor=none;" vertex="1" parent="78">
                    <mxGeometry x="30" y="640" width="120" height="80" as="geometry"/>
                </mxCell>
                <mxCell id="112" value="" style="group" connectable="0" vertex="1" parent="1">
                    <mxGeometry x="1080" y="100" width="180" height="440" as="geometry"/>
                </mxCell>
                <mxCell id="93" value="" style="rounded=0;whiteSpace=wrap;html=1;fillColor=none;" vertex="1" parent="112">
                    <mxGeometry width="180" height="440" as="geometry"/>
                </mxCell>
                <mxCell id="94" value="" style="ellipse;whiteSpace=wrap;html=1;fillColor=none;" vertex="1" parent="112">
                    <mxGeometry x="30" y="50" width="120" height="80" as="geometry"/>
                </mxCell>
                <mxCell id="95" value="Ship Order" style="text;html=1;strokeColor=none;fillColor=none;align=center;verticalAlign=middle;whiteSpace=wrap;rounded=0;" vertex="1" parent="112">
                    <mxGeometry x="70" y="80" width="40" height="20" as="geometry"/>
                </mxCell>
                <mxCell id="96" value="View All Unshipped Orders" style="ellipse;whiteSpace=wrap;html=1;fillColor=none;" vertex="1" parent="112">
                    <mxGeometry x="30" y="350" width="120" height="80" as="geometry"/>
                </mxCell>
                <mxCell id="97" value="Add New Wine" style="ellipse;whiteSpace=wrap;html=1;fillColor=none;align=center;" vertex="1" parent="112">
                    <mxGeometry x="30" y="150" width="120" height="80" as="geometry"/>
                </mxCell>
                <mxCell id="99" value="«Subsystem»&lt;br&gt;&lt;b&gt;Employee View&lt;/b&gt;" style="text;html=1;align=center;verticalAlign=middle;resizable=0;points=[];autosize=1;" vertex="1" parent="112">
                    <mxGeometry x="-5" width="100" height="30" as="geometry"/>
                </mxCell>
                <mxCell id="101" value="Restock Wine" style="ellipse;whiteSpace=wrap;html=1;fillColor=none;" vertex="1" parent="112">
                    <mxGeometry x="30" y="250" width="120" height="80" as="geometry"/>
                </mxCell>
                <mxCell id="113" value="" style="group;" connectable="0" vertex="1" parent="1">
                    <mxGeometry x="600" y="870" width="780" height="140" as="geometry"/>
                </mxCell>
                <mxCell id="81" value="" style="rounded=0;whiteSpace=wrap;html=1;fillColor=none;" vertex="1" parent="113">
                    <mxGeometry width="780" height="140" as="geometry"/>
                </mxCell>
                <mxCell id="82" value="View All Orders" style="ellipse;whiteSpace=wrap;html=1;fillColor=none;" vertex="1" parent="113">
                    <mxGeometry x="90" y="30" width="120" height="80" as="geometry"/>
                </mxCell>
                <mxCell id="87" value="«Subsystem»&lt;br&gt;&lt;b&gt;Admin View&lt;/b&gt;" style="text;html=1;align=center;verticalAlign=middle;resizable=0;points=[];autosize=1;" vertex="1" parent="113">
                    <mxGeometry width="90" height="30" as="geometry"/>
                </mxCell>
                <mxCell id="104" value="View All Users" style="ellipse;whiteSpace=wrap;html=1;fillColor=none;" vertex="1" parent="113">
                    <mxGeometry x="225" y="30" width="120" height="80" as="geometry"/>
                </mxCell>
                <mxCell id="105" value="View All Employees" style="ellipse;whiteSpace=wrap;html=1;fillColor=none;" vertex="1" parent="113">
                    <mxGeometry x="360" y="30" width="120" height="80" as="geometry"/>
                </mxCell>
                <mxCell id="106" value="Add new Employees" style="ellipse;whiteSpace=wrap;html=1;fillColor=none;" vertex="1" parent="113">
                    <mxGeometry x="640" y="30" width="120" height="80" as="geometry"/>
                </mxCell>
                <mxCell id="110" value="&lt;span style=&quot;font-weight: normal&quot;&gt;View All Wines&lt;/span&gt;" style="ellipse;whiteSpace=wrap;html=1;fillColor=none;fontStyle=1" vertex="1" parent="113">
                    <mxGeometry x="500" y="30" width="120" height="80" as="geometry"/>
                </mxCell>
                <mxCell id="115" style="edgeStyle=orthogonalEdgeStyle;rounded=0;orthogonalLoop=1;jettySize=auto;html=1;exitX=0.5;exitY=1;exitDx=0;exitDy=0;entryX=0.5;entryY=0;entryDx=0;entryDy=0;jumpStyle=arc;jumpSize=15;strokeColor=#FF0000;endArrow=none;endFill=0;" edge="1" parent="1" source="114" target="82">
                    <mxGeometry relative="1" as="geometry"/>
                </mxCell>
                <mxCell id="116" style="edgeStyle=orthogonalEdgeStyle;rounded=0;jumpStyle=arc;jumpSize=15;orthogonalLoop=1;jettySize=auto;html=1;exitX=0.5;exitY=1;exitDx=0;exitDy=0;entryX=0.5;entryY=0;entryDx=0;entryDy=0;strokeColor=#FF0000;endArrow=none;endFill=0;" edge="1" parent="1" source="114" target="104">
                    <mxGeometry relative="1" as="geometry"/>
                </mxCell>
                <mxCell id="117" style="edgeStyle=orthogonalEdgeStyle;rounded=0;jumpStyle=arc;jumpSize=15;orthogonalLoop=1;jettySize=auto;html=1;exitX=0.5;exitY=1;exitDx=0;exitDy=0;entryX=0.5;entryY=0;entryDx=0;entryDy=0;strokeColor=#FF0000;endArrow=none;endFill=0;" edge="1" parent="1" source="114" target="105">
                    <mxGeometry relative="1" as="geometry"/>
                </mxCell>
                <mxCell id="118" style="edgeStyle=orthogonalEdgeStyle;rounded=0;jumpStyle=arc;jumpSize=15;orthogonalLoop=1;jettySize=auto;html=1;exitX=0.5;exitY=1;exitDx=0;exitDy=0;entryX=0.5;entryY=0;entryDx=0;entryDy=0;strokeColor=#FF0000;endArrow=none;endFill=0;" edge="1" parent="1" source="114" target="110">
                    <mxGeometry relative="1" as="geometry"/>
                </mxCell>
                <mxCell id="119" style="edgeStyle=orthogonalEdgeStyle;rounded=0;jumpStyle=arc;jumpSize=15;orthogonalLoop=1;jettySize=auto;html=1;exitX=0.5;exitY=1;exitDx=0;exitDy=0;strokeColor=#FF0000;endArrow=none;endFill=0;" edge="1" parent="1" source="114" target="106">
                    <mxGeometry relative="1" as="geometry"/>
                </mxCell>
                <mxCell id="121" style="edgeStyle=orthogonalEdgeStyle;rounded=0;jumpStyle=arc;jumpSize=15;orthogonalLoop=1;jettySize=auto;html=1;exitX=0;exitY=0.5;exitDx=0;exitDy=0;entryX=1;entryY=0.5;entryDx=0;entryDy=0;strokeColor=#FF0000;endArrow=none;endFill=0;" edge="1" parent="1" source="114" target="77">
                    <mxGeometry relative="1" as="geometry"/>
                </mxCell>
                <mxCell id="52" style="edgeStyle=orthogonalEdgeStyle;rounded=0;orthogonalLoop=1;jettySize=auto;html=1;exitX=0.5;exitY=0.5;exitDx=0;exitDy=0;exitPerimeter=0;" edge="1" parent="1">
                    <mxGeometry relative="1" as="geometry">
                        <mxPoint x="220" y="530" as="targetPoint"/>
                    </mxGeometry>
                </mxCell>
                <mxCell id="123" style="edgeStyle=orthogonalEdgeStyle;rounded=0;jumpStyle=arc;jumpSize=15;orthogonalLoop=1;jettySize=auto;html=1;exitX=0;exitY=0.5;exitDx=0;exitDy=0;entryX=1;entryY=0.5;entryDx=0;entryDy=0;strokeColor=#FF0000;endArrow=none;endFill=0;" edge="1" parent="1" source="114" target="76">
                    <mxGeometry relative="1" as="geometry"/>
                </mxCell>
                <mxCell id="124" style="edgeStyle=orthogonalEdgeStyle;rounded=0;jumpStyle=arc;jumpSize=15;orthogonalLoop=1;jettySize=auto;html=1;exitX=0;exitY=0.5;exitDx=0;exitDy=0;entryX=1;entryY=0.5;entryDx=0;entryDy=0;strokeColor=#FF0000;endArrow=none;endFill=0;" edge="1" parent="1" source="114" target="68">
                    <mxGeometry relative="1" as="geometry"/>
                </mxCell>
                <mxCell id="128" style="edgeStyle=orthogonalEdgeStyle;rounded=0;orthogonalLoop=1;jettySize=auto;html=1;exitX=1;exitY=0.5;exitDx=0;exitDy=0;entryX=0;entryY=0.5;entryDx=0;entryDy=0;strokeColor=#0000FF;jumpStyle=arc;jumpSize=15;endArrow=none;endFill=0;" edge="1" parent="1" source="120" target="101">
                    <mxGeometry relative="1" as="geometry"/>
                </mxCell>
                <mxCell id="133" style="edgeStyle=orthogonalEdgeStyle;rounded=0;orthogonalLoop=1;jettySize=auto;html=1;exitX=1;exitY=0.5;exitDx=0;exitDy=0;entryX=0;entryY=0.5;entryDx=0;entryDy=0;strokeColor=#0000FF;jumpSize=15;jumpStyle=arc;endArrow=none;endFill=0;" edge="1" parent="1" source="120" target="97">
                    <mxGeometry relative="1" as="geometry"/>
                </mxCell>
                <mxCell id="134" style="edgeStyle=orthogonalEdgeStyle;rounded=0;orthogonalLoop=1;jettySize=auto;html=1;exitX=1;exitY=0.5;exitDx=0;exitDy=0;entryX=0;entryY=0.5;entryDx=0;entryDy=0;strokeColor=#0000FF;jumpStyle=arc;jumpSize=15;endArrow=none;endFill=0;" edge="1" parent="1" source="120" target="94">
                    <mxGeometry relative="1" as="geometry"/>
                </mxCell>
                <mxCell id="135" style="edgeStyle=orthogonalEdgeStyle;rounded=0;jumpStyle=arc;jumpSize=15;orthogonalLoop=1;jettySize=auto;html=1;exitX=1;exitY=0.5;exitDx=0;exitDy=0;entryX=0;entryY=0.5;entryDx=0;entryDy=0;strokeColor=#0000FF;endArrow=none;endFill=0;" edge="1" parent="1" source="120" target="96">
                    <mxGeometry relative="1" as="geometry"/>
                </mxCell>
                <mxCell id="137" style="edgeStyle=orthogonalEdgeStyle;rounded=0;jumpStyle=arc;jumpSize=15;orthogonalLoop=1;jettySize=auto;html=1;exitX=0;exitY=0.5;exitDx=0;exitDy=0;entryX=1;entryY=1;entryDx=0;entryDy=0;strokeColor=#0000FF;endArrow=none;endFill=0;" edge="1" parent="1" source="120" target="63">
                    <mxGeometry relative="1" as="geometry">
                        <Array as="points">
                            <mxPoint x="710" y="490"/>
                            <mxPoint x="710" y="108"/>
                        </Array>
                    </mxGeometry>
                </mxCell>
                <mxCell id="138" style="edgeStyle=orthogonalEdgeStyle;rounded=0;jumpStyle=arc;jumpSize=15;orthogonalLoop=1;jettySize=auto;html=1;exitX=0;exitY=0.5;exitDx=0;exitDy=0;entryX=1;entryY=1;entryDx=0;entryDy=0;strokeColor=#0000FF;endArrow=none;endFill=0;" edge="1" parent="1" source="120" target="67">
                    <mxGeometry relative="1" as="geometry">
                        <Array as="points">
                            <mxPoint x="710" y="490"/>
                            <mxPoint x="710" y="208"/>
                        </Array>
                    </mxGeometry>
                </mxCell>
                <mxCell id="139" style="edgeStyle=orthogonalEdgeStyle;rounded=0;jumpStyle=arc;jumpSize=15;orthogonalLoop=1;jettySize=auto;html=1;exitX=0;exitY=0.5;exitDx=0;exitDy=0;entryX=1;entryY=1;entryDx=0;entryDy=0;strokeColor=#0000FF;endArrow=none;endFill=0;" edge="1" parent="1" source="120" target="73">
                    <mxGeometry relative="1" as="geometry">
                        <Array as="points">
                            <mxPoint x="710" y="490"/>
                            <mxPoint x="710" y="308"/>
                        </Array>
                    </mxGeometry>
                </mxCell>
                <mxCell id="140" style="edgeStyle=orthogonalEdgeStyle;rounded=0;jumpStyle=arc;jumpSize=15;orthogonalLoop=1;jettySize=auto;html=1;exitX=0;exitY=0.5;exitDx=0;exitDy=0;entryX=1;entryY=1;entryDx=0;entryDy=0;strokeColor=#0000FF;endArrow=none;endFill=0;" edge="1" parent="1" source="120" target="66">
                    <mxGeometry relative="1" as="geometry">
                        <Array as="points">
                            <mxPoint x="710" y="490"/>
                            <mxPoint x="710" y="408"/>
                        </Array>
                    </mxGeometry>
                </mxCell>
                <mxCell id="142" style="edgeStyle=orthogonalEdgeStyle;rounded=0;jumpStyle=arc;jumpSize=15;orthogonalLoop=1;jettySize=auto;html=1;exitX=0;exitY=0.5;exitDx=0;exitDy=0;entryX=1;entryY=1;entryDx=0;entryDy=0;strokeColor=#0000FF;endArrow=none;endFill=0;" edge="1" parent="1" source="120" target="68">
                    <mxGeometry relative="1" as="geometry">
                        <Array as="points">
                            <mxPoint x="710" y="490"/>
                            <mxPoint x="710" y="608"/>
                        </Array>
                    </mxGeometry>
                </mxCell>
                <mxCell id="143" style="edgeStyle=orthogonalEdgeStyle;rounded=0;jumpStyle=arc;jumpSize=15;orthogonalLoop=1;jettySize=auto;html=1;exitX=0;exitY=0.5;exitDx=0;exitDy=0;entryX=1;entryY=1;entryDx=0;entryDy=0;strokeColor=#0000FF;endArrow=none;endFill=0;" edge="1" parent="1" source="120" target="77">
                    <mxGeometry relative="1" as="geometry">
                        <Array as="points">
                            <mxPoint x="710" y="490"/>
                            <mxPoint x="710" y="708"/>
                        </Array>
                    </mxGeometry>
                </mxCell>
                <mxCell id="144" style="edgeStyle=orthogonalEdgeStyle;rounded=0;jumpStyle=arc;jumpSize=15;orthogonalLoop=1;jettySize=auto;html=1;exitX=0;exitY=0.5;exitDx=0;exitDy=0;entryX=1;entryY=1;entryDx=0;entryDy=0;strokeColor=#0000FF;endArrow=none;endFill=0;" edge="1" parent="1" source="120" target="76">
                    <mxGeometry relative="1" as="geometry">
                        <Array as="points">
                            <mxPoint x="710" y="490"/>
                            <mxPoint x="710" y="808"/>
                        </Array>
                    </mxGeometry>
                </mxCell>
                <mxCell id="120" value="«actor»&lt;br&gt;Employee" style="rounded=0;whiteSpace=wrap;html=1;fillColor=none;strokeColor=#0000FF;" vertex="1" parent="1">
                    <mxGeometry x="810" y="460" width="100" height="60" as="geometry"/>
                </mxCell>
                <mxCell id="149" style="edgeStyle=orthogonalEdgeStyle;rounded=0;orthogonalLoop=1;jettySize=auto;html=1;exitX=0;exitY=0.5;exitDx=0;exitDy=0;entryX=1;entryY=0;entryDx=0;entryDy=0;strokeColor=#00FF00;endArrow=none;endFill=0;jumpStyle=arc;jumpSize=15;" edge="1" parent="1" source="136" target="67">
                    <mxGeometry relative="1" as="geometry">
                        <Array as="points">
                            <mxPoint x="730" y="250"/>
                            <mxPoint x="730" y="152"/>
                        </Array>
                    </mxGeometry>
                </mxCell>
                <mxCell id="150" style="edgeStyle=orthogonalEdgeStyle;rounded=0;jumpStyle=arc;jumpSize=15;orthogonalLoop=1;jettySize=auto;html=1;exitX=0;exitY=0.5;exitDx=0;exitDy=0;entryX=1;entryY=0;entryDx=0;entryDy=0;strokeColor=#00FF00;endArrow=none;endFill=0;" edge="1" parent="1" source="136" target="73">
                    <mxGeometry relative="1" as="geometry"/>
                </mxCell>
                <mxCell id="151" style="edgeStyle=orthogonalEdgeStyle;rounded=0;jumpStyle=arc;jumpSize=15;orthogonalLoop=1;jettySize=auto;html=1;exitX=0;exitY=0.5;exitDx=0;exitDy=0;entryX=1;entryY=0;entryDx=0;entryDy=0;strokeColor=#00FF00;endArrow=none;endFill=0;" edge="1" parent="1" source="136" target="66">
                    <mxGeometry relative="1" as="geometry">
                        <Array as="points">
                            <mxPoint x="730" y="250"/>
                            <mxPoint x="730" y="352"/>
                        </Array>
                    </mxGeometry>
                </mxCell>
                <mxCell id="153" style="edgeStyle=orthogonalEdgeStyle;rounded=0;orthogonalLoop=1;jettySize=auto;html=1;exitX=0;exitY=0.5;exitDx=0;exitDy=0;entryX=1;entryY=0;entryDx=0;entryDy=0;strokeColor=#00FF00;jumpStyle=arc;jumpSize=15;endArrow=none;endFill=0;" edge="1" parent="1" source="136" target="63">
                    <mxGeometry relative="1" as="geometry">
                        <Array as="points">
                            <mxPoint x="730" y="250"/>
                            <mxPoint x="730" y="52"/>
                        </Array>
                    </mxGeometry>
                </mxCell>
                <mxCell id="155" style="edgeStyle=orthogonalEdgeStyle;rounded=0;jumpStyle=arc;jumpSize=15;orthogonalLoop=1;jettySize=auto;html=1;exitX=0;exitY=0.5;exitDx=0;exitDy=0;entryX=1;entryY=0;entryDx=0;entryDy=0;strokeColor=#00FF00;endArrow=none;endFill=0;" edge="1" parent="1" source="136" target="77">
                    <mxGeometry relative="1" as="geometry">
                        <Array as="points">
                            <mxPoint x="730" y="250"/>
                            <mxPoint x="730" y="652"/>
                        </Array>
                    </mxGeometry>
                </mxCell>
                <mxCell id="156" style="edgeStyle=orthogonalEdgeStyle;rounded=0;orthogonalLoop=1;jettySize=auto;html=1;exitX=0;exitY=0.5;exitDx=0;exitDy=0;entryX=1;entryY=0;entryDx=0;entryDy=0;strokeColor=#00FF00;jumpStyle=arc;jumpSize=15;endArrow=none;endFill=0;" edge="1" parent="1" source="136" target="76">
                    <mxGeometry relative="1" as="geometry">
                        <Array as="points">
                            <mxPoint x="730" y="250"/>
                            <mxPoint x="730" y="752"/>
                        </Array>
                    </mxGeometry>
                </mxCell>
                <mxCell id="154" style="edgeStyle=orthogonalEdgeStyle;rounded=0;jumpStyle=arc;jumpSize=15;orthogonalLoop=1;jettySize=auto;html=1;exitX=0;exitY=0.5;exitDx=0;exitDy=0;entryX=1;entryY=0;entryDx=0;entryDy=0;strokeColor=#00FF00;endArrow=none;endFill=0;" edge="1" parent="1" source="136" target="68">
                    <mxGeometry relative="1" as="geometry">
                        <Array as="points">
                            <mxPoint x="730" y="250"/>
                            <mxPoint x="730" y="552"/>
                        </Array>
                    </mxGeometry>
                </mxCell>
                <mxCell id="136" value="«actor»&lt;br&gt;User" style="rounded=0;whiteSpace=wrap;html=1;fillColor=none;strokeColor=#00FF00;" vertex="1" parent="1">
                    <mxGeometry x="810" y="220" width="100" height="60" as="geometry"/>
                </mxCell>
                <mxCell id="165" style="edgeStyle=orthogonalEdgeStyle;rounded=0;jumpStyle=arc;jumpSize=15;orthogonalLoop=1;jettySize=auto;html=1;exitX=0;exitY=0.5;exitDx=0;exitDy=0;entryX=1;entryY=0.5;entryDx=0;entryDy=0;endArrow=none;endFill=0;strokeColor=#FF99CC;" edge="1" parent="1" source="164" target="72">
                    <mxGeometry relative="1" as="geometry">
                        <Array as="points">
                            <mxPoint x="750" y="370"/>
                            <mxPoint x="750" y="480"/>
                        </Array>
                    </mxGeometry>
                </mxCell>
                <mxCell id="166" style="edgeStyle=orthogonalEdgeStyle;rounded=0;orthogonalLoop=1;jettySize=auto;html=1;exitX=0;exitY=0.5;exitDx=0;exitDy=0;entryX=0.5;entryY=0;entryDx=0;entryDy=0;strokeColor=#FF99CC;endArrow=none;endFill=0;jumpStyle=arc;jumpSize=15;" edge="1" parent="1" source="164" target="63">
                    <mxGeometry relative="1" as="geometry">
                        <Array as="points">
                            <mxPoint x="750" y="370"/>
                            <mxPoint x="750" y="20"/>
                            <mxPoint x="520" y="20"/>
                        </Array>
                    </mxGeometry>
                </mxCell>
                <mxCell id="164" value="«actor»&lt;br&gt;Guest" style="rounded=0;whiteSpace=wrap;html=1;fillColor=none;strokeColor=#FF99CC;" vertex="1" parent="1">
                    <mxGeometry x="810" y="340" width="100" height="60" as="geometry"/>
                </mxCell>
                <mxCell id="167" value="«Service»&lt;br&gt;&lt;b&gt;Authentication&lt;/b&gt;" style="shape=umlActor;verticalLabelPosition=bottom;verticalAlign=top;html=1;outlineConnect=0;endArrow=classic;endFill=1;fillColor=none;" vertex="1" parent="1">
                    <mxGeometry x="280" y="650" width="30" height="60" as="geometry"/>
                </mxCell>
                <mxCell id="168" style="edgeStyle=orthogonalEdgeStyle;rounded=0;jumpStyle=arc;jumpSize=15;orthogonalLoop=1;jettySize=auto;html=1;exitX=0;exitY=0.5;exitDx=0;exitDy=0;endArrow=none;endFill=0;" edge="1" parent="1" source="77" target="167">
                    <mxGeometry relative="1" as="geometry"/>
                </mxCell>
                <mxCell id="170" value="«Service»&lt;br&gt;&lt;b&gt;Registration&lt;/b&gt;" style="shape=umlActor;verticalLabelPosition=bottom;verticalAlign=top;html=1;outlineConnect=0;endArrow=classic;endFill=1;fillColor=none;" vertex="1" parent="1">
                    <mxGeometry x="280" y="450" width="30" height="60" as="geometry"/>
                </mxCell>
                <mxCell id="171" style="edgeStyle=orthogonalEdgeStyle;rounded=0;jumpStyle=arc;jumpSize=15;orthogonalLoop=1;jettySize=auto;html=1;exitX=0;exitY=0.5;exitDx=0;exitDy=0;endArrow=none;endFill=0;strokeColor=#000000;" edge="1" parent="1" source="72" target="170">
                    <mxGeometry relative="1" as="geometry"/>
                </mxCell>
            </root>
        </mxGraphModel>
    </diagram>
</mxfile>